#!OML:ASF Y:\EmotionMaleHayes\Project 1\Capture day 1\Session 1\Male1.ASF
:FULLY-SPECIFIED
:DEGREES
1347
root -27.6666 15.6484 -6.0079 364.771 31.2736 -351.707
lowerback 9.72674 -0.269961 -4.01263
upperback 4.76241 -0.650137 -0.562012
thorax -0.46121 -0.355674 1.73752
lowerneck -16.5496 13.5501 16.974
upperneck 20.1529 18.6653 -15.9173
head 12.6652 8.15549 -5.36701
rclavicle 5.9039e-014 -9.54166e-015
rhumerus -68.0452 12.0139 -102.206
rradius 40.4424
rwrist -3.86713
rhand -20.1304 -32.1254
rfingers 7.12502
rthumb 6.21396 -62.0143
lclavicle 5.9039e-014 -9.54166e-015
lhumerus -33.8569 -45.2821 107.82
lradius 91.9141
lwrist 14.6369
lhand -23.2421 -26.2044
lfingers 7.12502
lthumb 3.20931 3.75118
rfemur -25.0581 1.42216 -10.4099
rtibia 30.2296
rfoot -13.67 1.22427
rtoes -28.503
lfemur 16.1015 -15.4052 -32.4046
ltibia 35.8644
lfoot -23.7393 -3.2357
ltoes 20.5196
1348
root -27.7394 15.6997 -5.84683 364.742 32.8013 -351.378
lowerback 9.93789 -0.355912 -4.39804
upperback 4.8611 -0.797742 -0.403945
thorax -0.45458 -0.436583 2.13363
lowerneck -16.5739 13.4151 16.4626
upperneck 19.9778 18.427 -15.4278
head 12.434 8.06505 -5.15099
rclavicle 2.50469e-014 -1.59028e-014
rhumerus -64.6795 12.1731 -99.9856
rradius 37.3983
rwrist -1.05372
rhand -20.3564 -31.7807
rfingers 7.12502
rthumb 5.9957 -61.6759
lclavicle 2.50469e-014 -1.59028e-014
lhumerus -34.4197 -44.0477 107.926
lradius 89.2813
lwrist 14.9482
lhand -23.8187 -25.3013
lfingers 7.12502
lthumb 2.65244 4.66191
rfemur -23.4833 0.299608 -10.2177
rtibia 30.1964
rfoot -14.4658 0.213744
rtoes -30.6505
lfemur 15.7641 -14.8155 -31.3199
ltibia 37.0696
lfoot -22.7285 -2.57958
ltoes 19.4723
1349
root -27.8099 15.7613 -5.69161 364.696 34.4708 -351.7
lowerback 10.1466 -0.462977 -3.75171
upperback 4.59889 -0.899639 -0.354649
thorax -0.847722 -0.467744 1.83715
lowerneck -16.705 13.2322 16.821
upperneck 20.4479 18.1655 -15.5528
head 12.6499 7.94991 -5.31938
rclavicle 6.95746e-015 1.66979e-014
rhumerus -61.3833 11.053 -97.2911
rradius 34.2556
rwrist 2.54108
rhand -20.6363 -31.8746
rfingers 7.12502
rthumb 5.72549 -61.7772
lclavicle 6.95746e-015 1.66979e-014
lhumerus -35.6499 -43.376 108.173
lradius 86.2925
lwrist 15.4137
lhand -24.4746 -24.9451
lfingers 7.12502
lthumb 2.01896 5.02511
rfemur -22.1253 -0.462206 -9.3638
rtibia 30.0138
rfoot -15.3704 -0.946488
rtoes -31.767
lfemur 14.9878 -14.1535 -29.4174
ltibia 38.0055
lfoot -21.5747 -1.69173
ltoes 16.7002
1350
root -27.8783 15.8276 -5.54066 364.275 36.1732 -352.438
lowerback 10.4346 -0.595895 -2.97695
upperback 4.35066 -1.01583 -0.071825
thorax -1.26805 -0.509963 1.71375
lowerneck -16.8107 13.0638 16.9667
upperneck 21.0224 18.0177 -15.6995
head 12.9054 7.8698 -5.44475
rclavicle 8.3092e-014 -7.95139e-016
rhumerus -57.8603 8.87502 -93.3425
rradius 31.0962
rwrist 7.65293
rhand -19.9677 -31.8451
rfingers 7.12502
rthumb 6.37096 -61.7293
lclavicle 8.3092e-014 -7.95139e-016
lhumerus -35.664 -41.9996 108.356
lradius 82.0168
lwrist 15.0609
lhand -23.9474 -24.8806
lfingers 7.12502
lthumb 2.52816 5.08413
rfemur -20.6441 -0.687617 -8.04845
rtibia 29.7214
rfoot -15.8364 -1.59624
rtoes -30.9408
lfemur 14.3476 -13.6257 -27.3256
ltibia 38.8137
lfoot -20.6674 -1.11148
ltoes 16.3337
1351
root -27.943 15.8989 -5.3895 363.82 37.9451 -353.113
lowerback 10.7009 -0.714004 -2.38587
upperback 4.07132 -1.11999 0.267394
thorax -1.70468 -0.550936 1.752
lowerneck -16.7757 12.8878 16.5719
upperneck 21.582 17.8357 -15.2147
head 12.9807 7.80597 -5.25234
rclavicle -1.61016e-014 1.74931e-014
rhumerus -55.8231 9.00382 -91.9685
rradius 29.5697
rwrist 7.51743
rhand -21.1299 -32.6023
rfingers 7.12502
rthumb 5.24896 -62.5173
lclavicle -1.61016e-014 1.74931e-014
lhumerus -36.6078 -41.8614 108.336
lradius 79.3423
lwrist 15.2385
lhand -23.6165 -23.5985
lfingers 7.12502
lthumb 2.84777 6.36227
rfemur -19.0476 -1.08758 -6.83169
rtibia 29.3102
rfoot -15.9091 -1.76343
rtoes -28.7141
lfemur 13.6422 -12.8425 -25.2507
ltibia 39.6024
lfoot -19.9856 -0.434594
ltoes 13.2671
1352
root -28.013 15.9766 -5.24818 362.921 39.6519 -354.475
lowerback 11.0637 -0.826818 -1.28832
upperback 3.73998 -1.15364 0.713061
thorax -2.26037 -0.556376 1.61078
lowerneck -16.7353 12.6615 16.1414
upperneck 22.1682 17.5545 -14.6093
head 13.031 7.70864 -5.02969
rclavicle -2.10712e-014 -1.90833e-014
rhumerus -53.5979 8.30525 -89.9049
rradius 28.2463
rwrist 7.41174
rhand -21.9588 -32.7636
rfingers 7.12502
rthumb 4.44858 -62.6969
lclavicle -2.10712e-014 -1.90833e-014
lhumerus -36.6525 -40.0593 108.346
lradius 74.7484
lwrist 13.9575
lhand -22.5974 -23.6248
lfingers 7.12502
lthumb 3.83192 6.32053
rfemur -17.4752 -1.33482 -4.99196
rtibia 28.6483
rfoot -16.1352 -2.32624
rtoes -26.3555
lfemur 12.7776 -11.8265 -22.5051
ltibia 40.4876
lfoot -19.4922 0.3468
ltoes 12.5061
1353
root -28.0766 16.0507 -5.11058 362.342 41.3606 -355.552
lowerback 10.9161 -0.930866 -0.366324
upperback 3.58048 -1.18317 1.01967
thorax -2.35752 -0.568564 1.41231
lowerneck -16.8842 12.4462 15.8784
upperneck 22.5018 17.2628 -14.3172
head 13.077 7.58064 -4.94244
rclavicle -3.37934e-014 1.59028e-015
rhumerus -50.917 6.88834 -87.4252
rradius 27.1596
rwrist 7.01697
rhand -22.478 -32.8261
rfingers 7.12502
rthumb 3.94717 -62.7693
lclavicle -3.37934e-014 1.59028e-015
lhumerus -36.1437 -39.1141 107.961
lradius 70.3697
lwrist 12.9166
lhand -22.4067 -23.286
lfingers 7.12502
lthumb 4.01607 6.6559
rfemur -15.9807 -1.81397 -3.5507
rtibia 27.7555
rfoot -16.7101 -3.43943
rtoes -25.9388
lfemur 11.663 -10.8133 -20.2396
ltibia 41.4071
lfoot -19.3811 1.55329
ltoes 13.3715
